# Blender v2.80 (sub 75) OBJ File: ''
# www.blender.org
mtllib Archbishop.mtl
o arch
v -2.159606 2.457055 -1.038614
v -1.966901 2.691448 -1.064074
v -2.133000 2.707000 -1.024999
v -1.993507 2.441503 -1.077688
v -2.012253 2.447203 -1.145718
v -2.121690 2.709887 -1.100100
v -1.985647 2.697149 -1.132104
v -2.148296 2.459942 -1.113715
v -2.133000 2.707000 -1.024999
v -2.148296 2.459942 -1.113715
v -2.159606 2.457055 -1.038614
v -2.121690 2.709887 -1.100100
v -1.993507 2.441503 -1.077688
v -1.831750 2.685307 -1.215461
v -1.966901 2.691448 -1.064074
v -1.858356 2.435362 -1.229077
v -1.901558 2.442174 -1.269712
v -1.985647 2.697149 -1.132104
v -1.874952 2.692119 -1.256098
v -2.012253 2.447203 -1.145718
v -1.858356 2.435362 -1.229077
v -1.767923 2.690413 -1.433939
v -1.831750 2.685307 -1.215461
v -1.794529 2.440468 -1.447553
v -1.849280 2.446356 -1.448655
v -1.874952 2.692119 -1.256098
v -1.822674 2.696301 -1.435040
v -1.901558 2.442174 -1.269712
v -1.794529 2.440468 -1.447553
v -1.794488 2.705240 -1.654234
v -1.767923 2.690413 -1.433939
v -1.821094 2.455295 -1.667849
v -1.871038 2.458500 -1.629088
v -1.822674 2.696301 -1.435040
v -1.844432 2.708445 -1.615473
v -1.849280 2.446356 -1.448655
v -1.821094 2.455295 -1.667849
v -1.903508 2.725359 -1.810537
v -1.794488 2.705240 -1.654234
v -1.930114 2.475414 -1.824152
v -1.960331 2.474978 -1.757107
v -1.844432 2.708445 -1.615473
v -1.933725 2.724924 -1.743492
v -1.871038 2.458500 -1.629088
v -1.930114 2.475414 -1.824152
v -2.062415 2.744759 -1.856152
v -1.903508 2.725359 -1.810537
v -2.089021 2.494814 -1.869767
v -2.090483 2.490868 -1.794468
v -1.933725 2.724924 -1.743492
v -2.063877 2.740813 -1.780854
v -1.960331 2.474978 -1.757107
v -2.063877 2.740813 -1.780854
v -2.089021 2.494814 -1.869767
v -2.090483 2.490868 -1.794468
v -2.062415 2.744759 -1.856152
v -2.148296 2.459942 -1.113715
v -1.993507 2.441503 -1.077688
v -2.159606 2.457055 -1.038614
v -2.012253 2.447203 -1.145718
v -1.985647 2.697149 -1.132104
v -2.133000 2.707000 -1.024999
v -1.966901 2.691448 -1.064074
v -2.121690 2.709887 -1.100100
v -1.858356 2.435362 -1.229077
v -1.901558 2.442174 -1.269712
v -1.874952 2.692119 -1.256098
v -1.831750 2.685307 -1.215461
v -1.794529 2.440468 -1.447553
v -1.858356 2.435362 -1.229077
v -1.849280 2.446356 -1.448655
v -1.822674 2.696301 -1.435040
v -1.767923 2.690413 -1.433939
v -1.821094 2.455295 -1.667849
v -1.794529 2.440468 -1.447553
v -1.871038 2.458500 -1.629088
v -1.844432 2.708445 -1.615473
v -1.794488 2.705240 -1.654234
v -1.930114 2.475414 -1.824152
v -1.960331 2.474978 -1.757107
v -1.933725 2.724924 -1.743492
v -1.903508 2.725359 -1.810537
v -2.089021 2.494814 -1.869767
v -2.090483 2.490868 -1.794468
v -2.063877 2.740813 -1.780854
v -2.062415 2.744759 -1.856152
v -2.186235 2.205495 -1.052134
v -1.993530 2.439888 -1.077594
v -2.159629 2.455441 -1.038520
v -2.020136 2.189943 -1.091208
v -2.038882 2.195644 -1.159238
v -2.148318 2.458327 -1.113620
v -2.012275 2.445589 -1.145624
v -2.174925 2.208382 -1.127235
v -2.159629 2.455441 -1.038520
v -2.174925 2.208382 -1.127235
v -2.186235 2.205495 -1.052134
v -2.148318 2.458327 -1.113620
v -2.020136 2.189943 -1.091208
v -1.858379 2.433748 -1.228982
v -1.993530 2.439888 -1.077594
v -1.884985 2.183802 -1.242597
v -1.928186 2.190614 -1.283232
v -2.012275 2.445589 -1.145624
v -1.901580 2.440560 -1.269618
v -2.038882 2.195644 -1.159238
v -1.884985 2.183802 -1.242597
v -1.794551 2.438853 -1.447459
v -1.858379 2.433748 -1.228982
v -1.821158 2.188908 -1.461073
v -1.875909 2.194796 -1.462175
v -1.901580 2.440560 -1.269618
v -1.849303 2.444741 -1.448561
v -1.928186 2.190614 -1.283232
v -1.821158 2.188908 -1.461073
v -1.821116 2.453681 -1.667754
v -1.794551 2.438853 -1.447459
v -1.847722 2.203735 -1.681369
v -1.897666 2.206940 -1.642608
v -1.849303 2.444741 -1.448561
v -1.871060 2.456886 -1.628993
v -1.875909 2.194796 -1.462175
v -1.847722 2.203735 -1.681369
v -1.930137 2.473799 -1.824057
v -1.821116 2.453681 -1.667754
v -1.956743 2.223854 -1.837672
v -1.986959 2.223419 -1.770627
v -1.871060 2.456886 -1.628993
v -1.960353 2.473364 -1.757013
v -1.897666 2.206940 -1.642608
v -1.956743 2.223854 -1.837672
v -2.089044 2.493199 -1.869672
v -1.930137 2.473799 -1.824057
v -2.115650 2.243254 -1.883287
v -2.117112 2.239308 -1.807988
v -1.960353 2.473364 -1.757013
v -2.090506 2.489253 -1.794374
v -1.986959 2.223419 -1.770627
v -2.090506 2.489253 -1.794374
v -2.115650 2.243254 -1.883287
v -2.117112 2.239308 -1.807988
v -2.089044 2.493199 -1.869672
v -2.174925 2.208382 -1.127235
v -2.020136 2.189943 -1.091208
v -2.186235 2.205495 -1.052134
v -2.038882 2.195644 -1.159238
v -2.012275 2.445589 -1.145624
v -2.159629 2.455441 -1.038520
v -1.993530 2.439888 -1.077594
v -2.148318 2.458327 -1.113620
v -1.884985 2.183802 -1.242597
v -1.928186 2.190614 -1.283232
v -1.901580 2.440560 -1.269618
v -1.858379 2.433748 -1.228982
v -1.821158 2.188908 -1.461073
v -1.884985 2.183802 -1.242597
v -1.875909 2.194796 -1.462175
v -1.849303 2.444741 -1.448561
v -1.794551 2.438853 -1.447459
v -1.847722 2.203735 -1.681369
v -1.821158 2.188908 -1.461073
v -1.897666 2.206940 -1.642608
v -1.871060 2.456886 -1.628993
v -1.821116 2.453681 -1.667754
v -1.956743 2.223854 -1.837672
v -1.986959 2.223419 -1.770627
v -1.960353 2.473364 -1.757013
v -1.930137 2.473799 -1.824057
v -2.115650 2.243254 -1.883287
v -2.117112 2.239308 -1.807988
v -2.090506 2.489253 -1.794374
v -2.089044 2.493199 -1.869672
v -2.213831 1.947216 -1.066343
v -2.021126 2.181608 -1.091802
v -2.187225 2.197161 -1.052728
v -2.047732 1.931663 -1.105417
v -2.066478 1.937364 -1.173447
v -2.175914 2.200048 -1.127829
v -2.039871 2.187309 -1.159832
v -2.202521 1.950102 -1.141443
v -2.187225 2.197161 -1.052728
v -2.202521 1.950102 -1.141443
v -2.213831 1.947216 -1.066343
v -2.175914 2.200048 -1.127829
v -2.047732 1.931663 -1.105417
v -1.885975 2.175468 -1.243191
v -2.021126 2.181608 -1.091802
v -1.912581 1.925523 -1.256805
v -1.955782 1.932335 -1.297441
v -2.039871 2.187309 -1.159832
v -1.929176 2.182280 -1.283827
v -2.066478 1.937364 -1.173447
v -1.912581 1.925523 -1.256805
v -1.822147 2.180574 -1.461667
v -1.885975 2.175468 -1.243191
v -1.848754 1.930629 -1.475282
v -1.903505 1.936517 -1.476384
v -1.929176 2.182280 -1.283827
v -1.876899 2.186462 -1.462769
v -1.955782 1.932335 -1.297441
v -1.848754 1.930629 -1.475282
v -1.848712 2.195401 -1.681963
v -1.822147 2.180574 -1.461667
v -1.875318 1.945456 -1.695577
v -1.925262 1.948661 -1.656816
v -1.876899 2.186462 -1.462769
v -1.898656 2.198606 -1.643202
v -1.903505 1.936517 -1.476384
v -1.875318 1.945456 -1.695577
v -1.957733 2.215520 -1.838266
v -1.848712 2.195401 -1.681963
v -1.984339 1.965574 -1.851880
v -2.014555 1.965139 -1.784835
v -1.898656 2.198606 -1.643202
v -1.987949 2.215084 -1.771221
v -1.925262 1.948661 -1.656816
v -1.984339 1.965574 -1.851880
v -2.116640 2.234920 -1.883881
v -1.957733 2.215520 -1.838266
v -2.143246 1.984974 -1.897495
v -2.144708 1.981029 -1.822196
v -1.987949 2.215084 -1.771221
v -2.118102 2.230974 -1.808582
v -2.014555 1.965139 -1.784835
v -2.118102 2.230974 -1.808582
v -2.143246 1.984974 -1.897495
v -2.144708 1.981029 -1.822196
v -2.116640 2.234920 -1.883881
v -2.202521 1.950102 -1.141443
v -2.047732 1.931663 -1.105417
v -2.213831 1.947216 -1.066343
v -2.066478 1.937364 -1.173447
v -2.039871 2.187309 -1.159832
v -2.187225 2.197161 -1.052728
v -2.021126 2.181608 -1.091802
v -2.175914 2.200048 -1.127829
v -1.912581 1.925523 -1.256805
v -1.955782 1.932335 -1.297441
v -1.929176 2.182280 -1.283827
v -1.885975 2.175468 -1.243191
v -1.848754 1.930629 -1.475282
v -1.912581 1.925523 -1.256805
v -1.903505 1.936517 -1.476384
v -1.876899 2.186462 -1.462769
v -1.822147 2.180574 -1.461667
v -1.875318 1.945456 -1.695577
v -1.848754 1.930629 -1.475282
v -1.925262 1.948661 -1.656816
v -1.898656 2.198606 -1.643202
v -1.848712 2.195401 -1.681963
v -1.984339 1.965574 -1.851880
v -2.014555 1.965139 -1.784835
v -1.987949 2.215084 -1.771221
v -1.957733 2.215520 -1.838266
v -2.143246 1.984974 -1.897495
v -2.144708 1.981029 -1.822196
v -2.118102 2.230974 -1.808582
v -2.116640 2.234920 -1.883881
vt 0.479830 0.000000
vt 0.000000 0.550753
vt 0.000000 0.000000
vt 0.479830 0.550753
vt -0.479830 0.500923
vt 0.000000 0.049830
vt 0.000000 0.500923
vt -0.479830 0.049830
vt 0.000000 0.000000
vt 0.182335 0.479830
vt 0.000000 0.479830
vt 0.182335 0.000000
vt -0.468485 0.479830
vt -1.019238 0.000000
vt -0.468485 0.000000
vt -1.019238 0.479830
vt 0.969408 0.479830
vt 0.518315 0.000000
vt 0.969408 0.000000
vt 0.518315 0.479830
vt -0.714746 0.479830
vt -1.265499 0.000000
vt -0.714746 0.000000
vt -1.265499 0.479830
vt 1.215669 0.479830
vt 0.764576 0.000000
vt 1.215669 0.000000
vt 0.764576 0.479830
vt -0.665213 0.479830
vt -1.215965 0.000000
vt -0.665213 0.000000
vt -1.215965 0.479830
vt 1.166135 0.479830
vt 0.715042 0.000000
vt 1.166135 0.000000
vt 0.715042 0.479830
vt -0.479830 -0.334683
vt 0.000000 -0.885436
vt 0.000000 -0.334683
vt -0.479830 -0.885436
vt 0.479830 -0.835606
vt 0.000000 -0.384513
vt 0.000000 -0.835606
vt 0.479830 -0.384513
vt -0.479830 0.178098
vt 0.000000 -0.372654
vt 0.000000 0.178098
vt -0.479830 -0.372654
vt 0.479830 -0.322824
vt 0.000000 0.128268
vt 0.000000 -0.322824
vt 0.479830 0.128268
vt 1.816648 0.000000
vt 1.998983 0.479830
vt 1.816648 0.479830
vt 1.998983 0.000000
vt 0.182335 0.000000
vt 0.150514 0.529787
vt 0.000000 0.000000
vt 0.305613 0.433921
vt -0.305613 0.433921
vt 0.000000 0.000000
vt -0.150514 0.529787
vt -0.182335 0.000000
vt 0.557090 0.901303
vt 0.638619 0.738210
vt -0.638619 0.738210
vt -0.557090 0.901303
vt 1.098267 1.003559
vt 0.557090 0.901303
vt 1.081868 0.821963
vt -1.081868 0.821963
vt -1.098267 1.003559
vt 1.612370 0.806007
vt 1.098267 1.003559
vt 1.502943 0.660159
vt -1.502943 0.660159
vt -1.612370 0.806007
vt 1.945814 0.367665
vt 1.776049 0.301135
vt -1.776049 0.301135
vt -1.945814 0.367665
vt 1.998983 -0.180515
vt 1.819598 -0.147850
vt -1.819598 -0.147850
vt -1.998983 -0.180515
vt 0.479830 0.000000
vt 0.000000 0.550753
vt 0.000000 0.000000
vt 0.479830 0.550753
vt -0.479830 0.500923
vt 0.000000 0.049830
vt 0.000000 0.500923
vt -0.479830 0.049830
vt 0.000000 0.000000
vt 0.182335 0.479830
vt 0.000000 0.479830
vt 0.182335 0.000000
vt -0.468485 0.479830
vt -1.019238 0.000000
vt -0.468485 0.000000
vt -1.019238 0.479830
vt 0.969408 0.479830
vt 0.518315 0.000000
vt 0.969408 0.000000
vt 0.518315 0.479830
vt -0.714746 0.479830
vt -1.265499 0.000000
vt -0.714746 0.000000
vt -1.265499 0.479830
vt 1.215669 0.479830
vt 0.764576 0.000000
vt 1.215669 0.000000
vt 0.764576 0.479830
vt -0.665213 0.479830
vt -1.215965 0.000000
vt -0.665213 0.000000
vt -1.215965 0.479830
vt 1.166135 0.479830
vt 0.715042 0.000000
vt 1.166135 0.000000
vt 0.715042 0.479830
vt -0.479830 -0.334683
vt 0.000000 -0.885436
vt 0.000000 -0.334683
vt -0.479830 -0.885436
vt 0.479830 -0.835606
vt 0.000000 -0.384513
vt 0.000000 -0.835606
vt 0.479830 -0.384513
vt -0.479830 0.178098
vt 0.000000 -0.372654
vt 0.000000 0.178098
vt -0.479830 -0.372654
vt 0.479830 -0.322824
vt 0.000000 0.128268
vt 0.000000 -0.322824
vt 0.479830 0.128268
vt 1.816648 0.000000
vt 1.998983 0.479830
vt 1.816648 0.479830
vt 1.998983 0.000000
vt 0.182335 0.000000
vt 0.150514 0.529787
vt 0.000000 0.000000
vt 0.305613 0.433921
vt -0.305613 0.433921
vt 0.000000 0.000000
vt -0.150514 0.529787
vt -0.182335 0.000000
vt 0.557090 0.901303
vt 0.638619 0.738210
vt -0.638619 0.738210
vt -0.557090 0.901303
vt 1.098267 1.003559
vt 0.557090 0.901303
vt 1.081868 0.821963
vt -1.081868 0.821963
vt -1.098267 1.003559
vt 1.612370 0.806007
vt 1.098267 1.003559
vt 1.502943 0.660159
vt -1.502943 0.660159
vt -1.612370 0.806007
vt 1.945814 0.367665
vt 1.776049 0.301135
vt -1.776049 0.301135
vt -1.945814 0.367665
vt 1.998983 -0.180515
vt 1.819598 -0.147850
vt -1.819598 -0.147850
vt -1.998983 -0.180515
vt 0.479830 0.000000
vt 0.000000 0.550753
vt 0.000000 0.000000
vt 0.479830 0.550753
vt -0.479830 0.500923
vt 0.000000 0.049830
vt 0.000000 0.500923
vt -0.479830 0.049830
vt 0.000000 0.000000
vt 0.182335 0.479830
vt 0.000000 0.479830
vt 0.182335 0.000000
vt -0.468485 0.479830
vt -1.019238 0.000000
vt -0.468485 0.000000
vt -1.019238 0.479830
vt 0.969408 0.479830
vt 0.518315 0.000000
vt 0.969408 0.000000
vt 0.518315 0.479830
vt -0.714746 0.479830
vt -1.265499 0.000000
vt -0.714746 0.000000
vt -1.265499 0.479830
vt 1.215669 0.479830
vt 0.764576 0.000000
vt 1.215669 0.000000
vt 0.764576 0.479830
vt -0.665213 0.479830
vt -1.215965 0.000000
vt -0.665213 0.000000
vt -1.215965 0.479830
vt 1.166135 0.479830
vt 0.715042 0.000000
vt 1.166135 0.000000
vt 0.715042 0.479830
vt -0.479830 -0.334683
vt 0.000000 -0.885436
vt 0.000000 -0.334683
vt -0.479830 -0.885436
vt 0.479830 -0.835606
vt 0.000000 -0.384513
vt 0.000000 -0.835606
vt 0.479830 -0.384513
vt -0.479830 0.178098
vt 0.000000 -0.372654
vt 0.000000 0.178098
vt -0.479830 -0.372654
vt 0.479830 -0.322824
vt 0.000000 0.128268
vt 0.000000 -0.322824
vt 0.479830 0.128268
vt 1.816648 0.000000
vt 1.998983 0.479830
vt 1.816648 0.479830
vt 1.998983 0.000000
vt 0.182335 0.000000
vt 0.150514 0.529787
vt 0.000000 0.000000
vt 0.305613 0.433921
vt -0.305613 0.433921
vt 0.000000 0.000000
vt -0.150514 0.529787
vt -0.182335 0.000000
vt 0.557090 0.901303
vt 0.638619 0.738210
vt -0.638619 0.738210
vt -0.557090 0.901303
vt 1.098267 1.003559
vt 0.557090 0.901303
vt 1.081868 0.821963
vt -1.081868 0.821963
vt -1.098267 1.003559
vt 1.612370 0.806007
vt 1.098267 1.003559
vt 1.502943 0.660159
vt -1.502943 0.660159
vt -1.612370 0.806007
vt 1.945814 0.367665
vt 1.776049 0.301135
vt -1.776049 0.301135
vt -1.945814 0.367665
vt 1.998983 -0.180515
vt 1.819598 -0.147850
vt -1.819598 -0.147850
vt -1.998983 -0.180515
vn 0.0518 -0.0598 0.9969
vn -0.0518 0.0598 -0.9969
vn -0.9832 0.1125 -0.1437
vn 0.4928 -0.0995 0.8644
vn 0.4928 -0.0996 0.8644
vn -0.4928 0.0996 -0.8644
vn -0.4928 0.0995 -0.8644
vn 0.9135 -0.1184 0.3892
vn -0.9135 0.1184 -0.3892
vn 0.9378 -0.0815 -0.3374
vn 0.9378 -0.0814 -0.3374
vn -0.9378 0.0815 0.3374
vn -0.9378 0.0814 0.3374
vn 0.6037 -0.0209 -0.7969
vn 0.6037 -0.0208 -0.7969
vn -0.6037 0.0209 0.7969
vn -0.6037 0.0208 0.7969
vn 0.2171 0.0300 -0.9757
vn -0.2171 -0.0300 0.9757
vn -0.9897 0.0998 0.1023
vn -0.1057 -0.9929 -0.0541
vn 0.1057 0.9929 0.0541
vn 0.0518 -0.0599 0.9969
vn -0.0518 0.0597 -0.9969
vn -0.9832 0.1125 -0.1438
vn 0.9378 -0.0814 -0.3373
vn -0.9378 0.0815 0.3373
vn -0.9378 0.0814 0.3373
usemtl Default_Prototype
s 1
f 1/1/1 2/2/1 3/3/1
f 1/1/1 4/4/1 2/2/1
f 5/5/2 6/6/2 7/7/2
f 5/5/2 8/8/2 6/6/2
f 9/9/3 10/10/3 11/11/3
f 9/9/3 12/12/3 10/10/3
f 13/13/4 14/14/4 15/15/5
f 13/13/4 16/16/4 14/14/4
f 17/17/6 18/18/7 19/19/7
f 17/17/6 20/20/7 18/18/7
f 21/21/8 22/22/8 23/23/8
f 21/21/8 24/24/8 22/22/8
f 25/25/9 26/26/9 27/27/9
f 25/25/9 28/28/9 26/26/9
f 29/29/10 30/30/10 31/31/10
f 29/29/10 32/32/11 30/30/10
f 33/33/12 34/34/13 35/35/12
f 33/33/12 36/36/12 34/34/13
f 37/37/14 38/38/14 39/39/14
f 37/37/14 40/40/15 38/38/14
f 41/41/16 42/42/17 43/43/16
f 41/41/16 44/44/16 42/42/17
f 45/45/18 46/46/18 47/47/18
f 45/45/18 48/48/18 46/46/18
f 49/49/19 50/50/19 51/51/19
f 49/49/19 52/52/19 50/50/19
f 53/53/20 54/54/20 55/55/20
f 53/53/20 56/56/20 54/54/20
f 57/57/21 58/58/21 59/59/21
f 57/57/21 60/60/21 58/58/21
f 61/61/22 62/62/22 63/63/22
f 61/61/22 64/64/22 62/62/22
f 60/60/21 65/65/21 58/58/21
f 60/60/21 66/66/21 65/65/21
f 67/67/22 63/63/22 68/68/22
f 67/67/22 61/61/22 63/63/22
f 66/66/21 69/69/21 70/70/21
f 66/66/21 71/71/21 69/69/21
f 72/72/22 68/68/22 73/73/22
f 72/72/22 67/67/22 68/68/22
f 71/71/21 74/74/21 75/75/21
f 71/71/21 76/76/21 74/74/21
f 77/77/22 73/73/22 78/78/22
f 77/77/22 72/72/22 73/73/22
f 76/76/21 79/79/21 74/74/21
f 76/76/21 80/80/21 79/79/21
f 81/81/22 78/78/22 82/82/22
f 81/81/22 77/77/22 78/78/22
f 80/80/21 83/83/21 79/79/21
f 80/80/21 84/84/21 83/83/21
f 85/85/22 82/82/22 86/86/22
f 85/85/22 81/81/22 82/82/22
f 87/87/23 88/88/1 89/89/1
f 87/87/23 90/90/1 88/88/1
f 91/91/24 92/92/2 93/93/2
f 91/91/24 94/94/2 92/92/2
f 95/95/25 96/96/3 97/97/3
f 95/95/25 98/98/25 96/96/3
f 99/99/4 100/100/4 101/101/5
f 99/99/4 102/102/4 100/100/4
f 103/103/6 104/104/7 105/105/7
f 103/103/6 106/106/7 104/104/7
f 107/107/8 108/108/8 109/109/8
f 107/107/8 110/110/8 108/108/8
f 111/111/9 112/112/9 113/113/9
f 111/111/9 114/114/9 112/112/9
f 115/115/10 116/116/10 117/117/10
f 115/115/10 118/118/26 116/116/10
f 119/119/27 120/120/28 121/121/27
f 119/119/27 122/122/27 120/120/28
f 123/123/14 124/124/14 125/125/14
f 123/123/14 126/126/15 124/124/14
f 127/127/16 128/128/17 129/129/16
f 127/127/16 130/130/16 128/128/17
f 131/131/18 132/132/18 133/133/18
f 131/131/18 134/134/18 132/132/18
f 135/135/19 136/136/19 137/137/19
f 135/135/19 138/138/19 136/136/19
f 139/139/20 140/140/20 141/141/20
f 139/139/20 142/142/20 140/140/20
f 143/143/21 144/144/21 145/145/21
f 143/143/21 146/146/21 144/144/21
f 147/147/22 148/148/22 149/149/22
f 147/147/22 150/150/22 148/148/22
f 146/146/21 151/151/21 144/144/21
f 146/146/21 152/152/21 151/151/21
f 153/153/22 149/149/22 154/154/22
f 153/153/22 147/147/22 149/149/22
f 152/152/21 155/155/21 156/156/21
f 152/152/21 157/157/21 155/155/21
f 158/158/22 154/154/22 159/159/22
f 158/158/22 153/153/22 154/154/22
f 157/157/21 160/160/21 161/161/21
f 157/157/21 162/162/21 160/160/21
f 163/163/22 159/159/22 164/164/22
f 163/163/22 158/158/22 159/159/22
f 162/162/21 165/165/21 160/160/21
f 162/162/21 166/166/21 165/165/21
f 167/167/22 164/164/22 168/168/22
f 167/167/22 163/163/22 164/164/22
f 166/166/21 169/169/21 165/165/21
f 166/166/21 170/170/21 169/169/21
f 171/171/22 168/168/22 172/172/22
f 171/171/22 167/167/22 168/168/22
f 173/173/1 174/174/1 175/175/1
f 173/173/1 176/176/1 174/174/1
f 177/177/2 178/178/2 179/179/2
f 177/177/2 180/180/2 178/178/2
f 181/181/25 182/182/3 183/183/3
f 181/181/25 184/184/25 182/182/3
f 185/185/4 186/186/4 187/187/5
f 185/185/4 188/188/4 186/186/4
f 189/189/6 190/190/7 191/191/7
f 189/189/6 192/192/7 190/190/7
f 193/193/8 194/194/8 195/195/8
f 193/193/8 196/196/8 194/194/8
f 197/197/9 198/198/9 199/199/9
f 197/197/9 200/200/9 198/198/9
f 201/201/10 202/202/10 203/203/10
f 201/201/10 204/204/26 202/202/10
f 205/205/27 206/206/12 207/207/27
f 205/205/27 208/208/27 206/206/12
f 209/209/14 210/210/14 211/211/14
f 209/209/14 212/212/15 210/210/14
f 213/213/16 214/214/17 215/215/16
f 213/213/16 216/216/16 214/214/17
f 217/217/18 218/218/18 219/219/18
f 217/217/18 220/220/18 218/218/18
f 221/221/19 222/222/19 223/223/19
f 221/221/19 224/224/19 222/222/19
f 225/225/20 226/226/20 227/227/20
f 225/225/20 228/228/20 226/226/20
f 229/229/21 230/230/21 231/231/21
f 229/229/21 232/232/21 230/230/21
f 233/233/22 234/234/22 235/235/22
f 233/233/22 236/236/22 234/234/22
f 232/232/21 237/237/21 230/230/21
f 232/232/21 238/238/21 237/237/21
f 239/239/22 235/235/22 240/240/22
f 239/239/22 233/233/22 235/235/22
f 238/238/21 241/241/21 242/242/21
f 238/238/21 243/243/21 241/241/21
f 244/244/22 240/240/22 245/245/22
f 244/244/22 239/239/22 240/240/22
f 243/243/21 246/246/21 247/247/21
f 243/243/21 248/248/21 246/246/21
f 249/249/22 245/245/22 250/250/22
f 249/249/22 244/244/22 245/245/22
f 248/248/21 251/251/21 246/246/21
f 248/248/21 252/252/21 251/251/21
f 253/253/22 250/250/22 254/254/22
f 253/253/22 249/249/22 250/250/22
f 252/252/21 255/255/21 251/251/21
f 252/252/21 256/256/21 255/255/21
f 257/257/22 254/254/22 258/258/22
f 257/257/22 253/253/22 254/254/22
